<svg version="1.1" id="Layer_1" xmlns="http://www.w3.org/2000/svg" xmlns:xlink="http://www.w3.org/1999/xlink" x="0px" y="0px"
	 width="100%" viewBox="0 0 5906 5906" enable-background="new 0 0 5906 5906" xml:space="preserve">
<path fill="#FFFFFF" opacity="1.000000" stroke="none"
	d="
M3359.998535,4145.671387
	C3236.722168,4145.671387 3115.445801,4145.671387 2994.155518,4145.671387
	C2989.915039,4137.375977 2992.106934,4129.284668 2991.713867,4121.506348
	C2991.143799,4110.223633 2993.749756,4097.843262 2989.881104,4087.929199
	C2986.022949,4078.041992 2976.144531,4070.341553 2968.402588,4062.157715
	C2911.615967,4002.127441 2854.591797,3942.321045 2797.898682,3882.202637
	C2781.448975,3864.759033 2765.230469,3847.025879 2749.976562,3828.541992
	C2726.942627,3800.631592 2707.047607,3770.709473 2698.685547,3734.705566
	C2694.783203,3717.904541 2691.427490,3700.976074 2687.875977,3684.094238
	C2685.141357,3671.095459 2683.643311,3657.703369 2679.557129,3645.149414
	C2671.095459,3619.151855 2671.860352,3592.722900 2672.743408,3566.026611
	C2673.604980,3539.978027 2677.052979,3514.163330 2682.309082,3488.872803
	C2693.414307,3435.436768 2710.888428,3383.984619 2735.673828,3335.114258
	C2784.735107,3238.378906 2853.807617,3158.439697 2938.563721,3091.447754
	C2991.956543,3049.245605 3049.492920,3013.807617 3110.513428,2983.741943
	C3146.224854,2966.146240 3182.865234,2950.738770 3220.179199,2937.182373
	C3251.847900,2925.676514 3284.406250,2916.547363 3316.782715,2907.091797
	C3331.403809,2902.821533 3346.531738,2900.277832 3361.443359,2897.013184
	C3379.601562,2893.037598 3397.727539,2888.891357 3415.962402,2885.299316
	C3423.768066,2883.762207 3431.951416,2884.090820 3439.722168,2882.438721
	C3459.963379,2878.134033 3480.683105,2877.321045 3500.942871,2874.018066
	C3541.339600,2867.432617 3581.934814,2868.089844 3622.509033,2866.713867
	C3629.169434,2866.488281 3635.862061,2866.672363 3642.487305,2866.077637
	C3652.800293,2865.152100 3656.003418,2861.442871 3656.652832,2850.607666
	C3656.812256,2847.950684 3656.692383,2845.276611 3656.691406,2842.610352
	C3656.673096,2793.283203 3656.695557,2743.956055 3656.587646,2694.628906
	C3656.571777,2687.447998 3658.049316,2679.823242 3650.934570,2672.330322
	C3623.715332,2672.032959 3595.144287,2672.229004 3566.578613,2672.195557
	C3537.915527,2672.162109 3509.252441,2672.187988 3480.589355,2672.187988
	C3451.926270,2672.187988 3423.263184,2672.187988 3394.600098,2672.187988
	C3366.603516,2672.187988 3338.607178,2672.187988 3310.610596,2672.187988
	C3281.947510,2672.187988 3253.284668,2672.187988 3224.621582,2672.187988
	C3195.958496,2672.187988 3167.295410,2672.187988 3138.632324,2672.187988
	C3109.969238,2672.187988 3081.306152,2672.187988 3052.643066,2672.187988
	C3023.979980,2672.187988 2995.316895,2672.187988 2966.653809,2672.187988
	C2937.990723,2672.187988 2909.327637,2672.187988 2880.664551,2672.187988
	C2852.667969,2672.187988 2824.671631,2672.187988 2796.675049,2672.187988
	C2768.011963,2672.187988 2739.349121,2672.187988 2710.686035,2672.187988
	C2682.022949,2672.187988 2653.359863,2672.187988 2624.696777,2672.187988
	C2596.033691,2672.187988 2567.370605,2672.187988 2538.707520,2672.187988
	C2510.044434,2672.187988 2481.381348,2672.187988 2452.718262,2672.187988
	C2424.055176,2672.187988 2395.392090,2672.187988 2366.729004,2672.187988
	C2338.065918,2672.187988 2309.403076,2672.187988 2280.739990,2672.187988
	C2252.743408,2672.187988 2224.747070,2672.187988 2196.750488,2672.187988
	C2168.087402,2672.187988 2139.424316,2672.187988 2110.761230,2672.187988
	C2082.098145,2672.187988 2053.435059,2672.187988 2024.771973,2672.187988
	C1996.108887,2672.187988 1967.445801,2672.187988 1938.782715,2672.187988
	C1910.119629,2672.187988 1881.456665,2672.187988 1852.793579,2672.187988
	C1824.130493,2672.187988 1795.467407,2672.187988 1766.804321,2672.187988
	C1738.807861,2672.187988 1710.810303,2672.041016 1682.815063,2672.229004
	C1654.184814,2672.421143 1625.556885,2673.215820 1596.927490,2673.241699
	C1568.268311,2673.267822 1539.609253,2672.542969 1510.948730,2672.379395
	C1482.462158,2672.217041 1453.973877,2672.343994 1426.111206,2672.343994
	C1425.252441,2670.274170 1424.846680,2669.672852 1424.785767,2669.038574
	C1424.729858,2668.455811 1424.884277,2667.722900 1425.220093,2667.251221
	C1770.187012,2182.496338 2115.176025,1697.756836 2460.185547,1213.031982
	C2462.854980,1209.281860 2465.804443,1205.731201 2469.447266,1201.022583
	C2487.477539,1223.250610 2502.531006,1246.512451 2518.755371,1268.889526
	C2535.180420,1291.543457 2551.249268,1314.455322 2567.474365,1337.254150
	C2583.699951,1360.053467 2599.906250,1382.866455 2616.156494,1405.648315
	C2632.376953,1428.388062 2648.641846,1451.096313 2666.066162,1475.467407
	C2680.408691,1452.779053 2691.565918,1430.276733 2703.861816,1408.456299
	C2716.611328,1385.831421 2728.967041,1362.984741 2741.522461,1340.250244
	C2753.755615,1318.098999 2766.038086,1295.975098 2778.271729,1273.824341
	C2790.824463,1251.095825 2803.349365,1228.352173 2815.877441,1205.609985
	C2828.086182,1183.447754 2840.265625,1161.269287 2852.490479,1139.115723
	C2865.038818,1116.376099 2877.631348,1093.660889 2890.194824,1070.929565
	C2902.432373,1048.788086 2914.662842,1026.642456 2926.885498,1004.492859
	C2939.432129,981.755798 2951.963867,959.010498 2964.506104,936.270996
	C2976.727783,914.112061 2988.940186,891.947998 3001.182861,869.800720
	C3013.747070,847.071777 3026.356201,824.367920 3038.919922,801.638916
	C3051.160645,779.494385 3063.380127,757.338257 3075.588623,735.175842
	C3088.120117,712.426941 3100.603516,689.651550 3113.150635,666.911194
	C3125.374512,644.755981 3137.657715,622.633667 3149.904785,600.491211
	C3162.474365,577.766235 3175.039795,555.039307 3187.590332,532.303833
	C3199.819824,510.149933 3212.018311,487.978912 3224.247314,465.824890
	C3236.796875,443.089905 3249.377441,420.371887 3261.926758,397.636627
	C3274.153320,375.485565 3286.354492,353.320587 3298.571045,331.164154
	C3311.110596,308.422211 3323.628906,285.668365 3336.204834,262.946594
	C3348.436279,240.847504 3360.729492,218.782532 3374.154053,194.616486
	C4100.654297,1511.131348 4826.693359,2825.385254 5551.762695,4140.174805
	C5552.265137,4141.086914 5551.490234,4142.703613 5551.309570,4144.011719
	C5550.120117,4144.502930 5548.922852,4145.431641 5547.725098,4145.431641
	C4819.149902,4145.552734 4090.574219,4145.611816 3359.998535,4145.671387
M2337.983887,2612.481934
	C2355.421143,2616.968262 2373.140137,2619.539551 2391.041260,2621.557373
	C2432.636963,2626.246094 2473.604492,2624.008301 2513.171143,2609.987061
	C2555.700684,2594.916016 2593.394531,2571.226074 2626.871094,2541.049561
	C2633.725830,2534.870361 2639.433350,2527.275635 2644.972900,2519.816406
	C2651.712402,2510.740723 2657.691650,2501.102051 2664.040771,2491.734375
	C2677.150146,2472.392822 2688.713379,2452.172363 2698.058350,2430.751709
	C2726.491211,2365.577881 2732.818604,2298.886230 2713.155273,2229.887451
	C2698.510010,2178.497803 2673.362549,2132.781982 2641.684814,2090.275391
	C2639.488525,2087.328613 2636.652832,2084.857910 2633.378662,2081.385254
	C2631.312500,2086.358643 2629.774414,2090.021240 2628.266846,2093.696533
	C2614.110107,2128.213135 2589.509521,2152.085449 2554.874268,2165.743408
	C2552.489746,2166.683594 2550.102051,2168.251953 2548.063477,2165.188232
	C2548.249512,2163.903809 2548.144287,2162.485352 2548.664062,2161.354248
	C2566.348389,2122.865234 2571.250244,2082.290039 2568.769287,2040.430420
	C2566.174316,1996.650146 2554.409912,1955.256836 2536.633057,1915.413330
	C2503.847412,1841.929199 2455.030273,1779.898682 2398.867676,1723.163940
	C2397.669678,1721.953857 2395.313721,1721.890015 2393.031250,1721.137451
	C2382.062744,1774.454102 2367.021973,1826.176270 2347.918213,1876.684204
	C2320.920654,1948.060669 2286.331055,2015.248413 2239.621582,2076.033691
	C2209.040283,2115.830566 2185.091797,2159.663086 2166.288818,2206.204834
	C2146.403564,2255.425049 2133.981689,2306.055420 2134.964111,2359.754150
	C2136.030762,2418.066406 2154.564697,2469.575684 2192.144775,2513.834961
	C2205.012207,2528.989502 2220.247559,2542.174072 2234.745605,2555.895264
	C2263.333008,2582.950684 2296.556885,2601.874268 2337.983887,2612.481934
z"/>
<path fill="#FEFFFF" opacity="1.000000" stroke="none"
	d="
M1091.998901,4145.674316
	C853.434937,4145.618164 616.871033,4145.564941 380.307190,4145.440918
	C379.165802,4145.440430 378.024902,4144.442383 376.884369,4143.909180
	C376.700043,4143.267578 376.418091,4142.635742 376.358551,4141.984375
	C376.303619,4141.383301 376.279114,4140.612305 376.595123,4140.167969
	C595.845032,3831.958252 815.124817,3523.770020 1034.707642,3215.155518
	C1040.695557,3216.623535 1045.861206,3217.556641 1050.810669,3219.158203
	C1078.520142,3228.123779 1105.977661,3237.932373 1133.913818,3246.112305
	C1157.398193,3252.988770 1181.453003,3257.898682 1205.188965,3263.940186
	C1218.683350,3267.374756 1231.935913,3271.802979 1245.493896,3274.931885
	C1261.649536,3278.660156 1278.012207,3281.494629 1294.295288,3284.663818
	C1296.249146,3285.043945 1298.308716,3284.906738 1300.247437,3285.334717
	C1318.386230,3289.339111 1336.502808,3293.444580 1354.642212,3297.445801
	C1358.534424,3298.304443 1362.488892,3298.887695 1366.422363,3299.551758
	C1376.879883,3301.316406 1387.322266,3303.184326 1397.805908,3304.779053
	C1420.799072,3308.276367 1443.817261,3311.609375 1466.818604,3315.053467
	C1474.692139,3316.232422 1482.549072,3317.524658 1490.407104,3318.803955
	C1493.033813,3319.231689 1495.621094,3319.967529 1498.259766,3320.246826
	C1526.711182,3323.257568 1555.145874,3326.459473 1583.632080,3329.101807
	C1614.800781,3331.993164 1646.074341,3333.836670 1677.190308,3337.179199
	C1690.975708,3338.659912 1704.836060,3341.603027 1718.050537,3345.805908
	C1748.340698,3355.439453 1778.601562,3365.298340 1806.598022,3380.920898
	C1847.164673,3403.557617 1883.427734,3431.099854 1910.330566,3469.651855
	C1932.362671,3501.223877 1947.341431,3535.553467 1951.244873,3574.218506
	C1951.512451,3576.870361 1951.517822,3579.593262 1952.156250,3582.156006
	C1956.150391,3598.186523 1953.984985,3613.760986 1949.350586,3629.304443
	C1942.908936,3650.908203 1936.092407,3672.437256 1930.742310,3694.317627
	C1926.467529,3711.799316 1920.449829,3728.635498 1914.775146,3745.615479
	C1902.757202,3781.574219 1883.085205,3813.021240 1857.096924,3840.438477
	C1789.269287,3911.996826 1721.233398,3983.357666 1653.290527,4054.806885
	C1645.946289,4062.530273 1638.909302,4070.564697 1631.281494,4077.994385
	C1625.122925,4083.992920 1622.343628,4090.926514 1622.442383,4099.379395
	C1622.582642,4111.372559 1622.541870,4123.369141 1622.453247,4135.362793
	C1622.434204,4137.937500 1621.880981,4140.507324 1621.636841,4142.550293
	C1615.757446,4147.439453 1609.525879,4145.570801 1603.780151,4145.583496
	C1538.475342,4145.724609 1473.169922,4145.673828 1407.864746,4145.673828
	C1303.242798,4145.674316 1198.620972,4145.674316 1091.998901,4145.674316
z"/>
<path fill="#F5F5F5" opacity="1.000000" stroke="none"
	d="
M1734.462524,4700.843750
	C1736.848755,4706.375488 1738.618286,4710.520508 1741.732666,4717.816406
	C1776.352417,4619.808594 1809.879395,4524.895020 1843.198486,4430.569336
	C1859.941406,4428.000977 1919.225830,4427.424805 1950.339966,4429.395508
	C1954.770264,4434.920898 1952.713013,4441.817383 1952.723755,4448.142090
	C1952.862671,4530.099121 1952.815796,4612.056641 1952.815796,4694.013672
	C1952.815796,4733.326660 1952.853516,4772.639648 1952.774414,4811.952637
	C1952.762695,4817.766602 1952.199341,4823.579590 1951.840698,4830.346680
	C1924.385010,4832.063477 1898.045166,4830.734863 1872.099976,4831.229980
	C1867.827148,4812.608887 1867.658325,4775.525391 1871.120361,4688.364258
	C1872.996460,4641.136230 1874.928711,4593.909668 1876.875366,4545.697754
	C1870.170044,4548.945312 1869.765137,4554.573730 1868.099609,4559.152832
	C1839.902100,4636.669922 1811.848022,4714.239746 1783.729126,4791.785645
	C1779.207642,4804.254883 1774.526489,4816.666504 1769.470215,4830.316406
	C1750.937988,4832.039551 1732.451782,4830.823730 1713.273193,4831.141113
	C1710.569580,4824.713379 1707.751831,4818.756836 1705.516846,4812.589355
	C1675.598877,4730.034668 1645.802856,4647.435547 1615.829224,4564.901367
	C1613.443359,4558.331543 1612.658203,4550.748047 1604.663696,4543.530762
	C1608.964111,4640.315918 1614.891968,4734.325195 1611.729858,4828.379883
	C1598.453003,4831.893066 1565.378784,4832.642578 1532.043457,4830.287598
	C1526.945557,4825.469727 1529.020508,4819.097168 1529.006592,4813.393066
	C1528.851929,4750.092773 1528.909058,4686.792480 1528.909058,4623.492188
	C1528.909058,4566.188477 1528.909058,4508.885254 1528.909058,4451.581543
	C1528.909058,4444.959961 1528.909058,4438.338867 1528.909058,4432.524414
	C1530.766602,4430.867676 1531.729126,4429.257812 1532.697632,4429.253906
	C1567.261230,4429.124512 1601.825317,4429.145996 1637.690063,4429.145996
	C1654.365479,4473.880371 1669.841431,4519.048340 1685.817993,4564.032715
	C1701.847900,4609.166504 1717.838135,4654.315430 1734.462524,4700.843750
z"/>
<path fill="#F5F5F5" opacity="1.000000" stroke="none"
	d="
M3117.371094,4574.477539
	C3140.363770,4612.061523 3162.558105,4648.422363 3184.563232,4684.473633
	C3190.103516,4683.998047 3189.565430,4680.230957 3189.572754,4677.100586
	C3189.649658,4644.439453 3189.647461,4611.777832 3189.653076,4579.116699
	C3189.660400,4535.790527 3189.579102,4492.463379 3189.736572,4449.138184
	C3189.760010,4442.649414 3187.967773,4435.792969 3192.406250,4429.124023
	C3217.955322,4429.124023 3243.781982,4429.124023 3270.351562,4429.124023
	C3274.389404,4435.861328 3272.541504,4443.333496 3272.550537,4450.327637
	C3272.693359,4560.310059 3272.650879,4670.291992 3272.650635,4780.274414
	C3272.650635,4792.938965 3272.725342,4805.604492 3272.601074,4818.267578
	C3272.563721,4822.073730 3271.970215,4825.874023 3271.626709,4829.734375
	C3268.650391,4830.412598 3266.782959,4831.202637 3264.913086,4831.208984
	C3240.278076,4831.291992 3215.642822,4831.264648 3189.971680,4831.264648
	C3172.204346,4802.288574 3154.471924,4773.425781 3136.797363,4744.527832
	C3119.423340,4716.121094 3102.137207,4687.661621 3084.759277,4659.257324
	C3067.235107,4630.614258 3050.084473,4601.729492 3029.826416,4569.792969
	C3027.831787,4579.914551 3028.465088,4585.694336 3028.361816,4591.366699
	C3028.252930,4597.363770 3028.337646,4603.364258 3028.337646,4609.363281
	C3028.337646,4615.362305 3028.337646,4621.361328 3028.337646,4627.360352
	C3028.337646,4634.025879 3028.337646,4640.691406 3028.337646,4647.356934
	C3028.337646,4653.355957 3028.337646,4659.354980 3028.337646,4665.354004
	C3028.337646,4671.353027 3028.337646,4677.352539 3028.337646,4683.351562
	C3028.337646,4689.350586 3028.337646,4695.349609 3028.337646,4701.348633
	C3028.337646,4707.347656 3028.337646,4713.346680 3028.337646,4719.345703
	C3028.337646,4725.344727 3028.337646,4731.343750 3028.337646,4737.342773
	C3028.337646,4743.341797 3028.337646,4749.340820 3028.337646,4755.339844
	C3028.337646,4762.005371 3028.337646,4768.670898 3028.337646,4775.336426
	C3028.337646,4781.335449 3028.337646,4787.334473 3028.337646,4793.333496
	C3028.337646,4799.332520 3028.337646,4805.331543 3028.337646,4811.330566
	C3028.337646,4817.211426 3028.337646,4823.092773 3028.337646,4828.643555
	C3013.316406,4831.883301 2972.016113,4832.469238 2947.191895,4830.027344
	C2943.006348,4823.587402 2945.025146,4816.054688 2945.014648,4809.005859
	C2944.860596,4707.022461 2944.908936,4605.038574 2944.909180,4503.055176
	C2944.909180,4483.725098 2944.909424,4464.395020 2944.909424,4445.064941
	C2944.909424,4440.488770 2944.909424,4435.912109 2944.909424,4431.694824
	C2959.384277,4427.563477 2986.707764,4426.876953 3028.563721,4429.404297
	C3058.081787,4476.522461 3087.131836,4525.010742 3117.371094,4574.477539
z"/>
<path fill="#F5F5F5" opacity="1.000000" stroke="none"
	d="
M4775.518066,4692.056641
	C4799.824707,4738.047852 4823.487305,4782.667480 4847.409668,4827.778320
	C4844.730957,4829.366211 4843.190430,4831.072266 4841.639648,4831.081543
	C4814.338379,4831.243652 4787.035645,4831.199219 4758.835449,4831.199219
	C4744.322266,4807.260254 4732.833496,4781.862305 4719.904785,4757.254883
	C4707.238770,4733.148926 4694.936035,4708.851074 4682.166992,4684.041016
	C4663.056641,4684.041016 4644.429688,4684.006836 4625.802246,4684.082031
	C4623.271484,4684.092285 4620.743164,4684.653320 4617.005859,4685.105469
	C4615.710938,4697.436035 4616.502441,4709.311523 4616.366699,4721.124023
	C4616.228516,4733.121582 4616.335938,4745.122559 4616.335938,4757.122070
	C4616.335938,4769.121582 4616.335938,4781.121094 4616.335938,4793.120605
	C4616.335938,4805.032715 4616.335938,4816.944336 4616.335938,4828.519531
	C4601.841797,4831.920410 4563.273438,4832.601074 4535.428711,4830.183105
	C4530.830566,4823.808105 4533.039551,4816.226074 4533.025391,4809.196777
	C4532.850586,4720.533691 4532.910156,4631.871094 4532.910156,4543.208008
	C4532.910156,4512.542480 4532.910156,4481.877441 4532.910156,4451.211914
	C4532.910156,4444.622070 4532.910156,4438.032227 4532.910156,4430.330078
	C4537.582031,4429.620605 4541.300293,4428.571289 4545.020508,4428.563965
	C4593.685059,4428.466797 4642.352051,4428.239258 4691.013184,4428.654297
	C4713.074219,4428.842285 4734.791992,4432.290039 4755.698730,4439.794434
	C4803.376953,4456.908691 4830.246582,4493.479004 4831.603027,4543.925781
	C4831.888184,4554.518555 4831.147949,4565.253906 4829.688965,4575.757812
	C4824.769043,4611.189941 4805.659668,4637.149414 4775.164551,4655.153320
	C4770.710449,4657.783203 4766.237305,4660.379883 4760.668945,4663.637695
	C4765.716309,4673.249023 4770.294922,4681.966797 4775.518066,4692.056641
M4723.661621,4606.771973
	C4747.322266,4587.363770 4754.489258,4562.674805 4745.084473,4533.889648
	C4739.268066,4516.087891 4727.698730,4504.209473 4709.500488,4499.688965
	C4701.208008,4497.628906 4692.537109,4496.403809 4683.999512,4496.164551
	C4665.405273,4495.644043 4646.785156,4495.910645 4628.177734,4496.070801
	C4624.458496,4496.103027 4620.748047,4497.095215 4616.305176,4497.752930
	C4616.305176,4533.349609 4616.298340,4567.844238 4616.316895,4602.338867
	C4616.318848,4605.659180 4616.436523,4608.980957 4616.604980,4612.297363
	C4616.633301,4612.864746 4617.144531,4613.437012 4617.510254,4613.951172
	C4617.893555,4614.490234 4618.371094,4614.961914 4619.298828,4616.028320
	C4643.984863,4616.028320 4669.198242,4616.696777 4694.342285,4615.670410
	C4703.278320,4615.305664 4712.046875,4610.823242 4723.661621,4606.771973
z"/>
<path fill="#F5F5F5" opacity="1.000000" stroke="none"
	d="
M807.263916,4428.485840
	C814.416504,4428.485840 819.656250,4428.485840 826.044067,4428.485840
	C826.665222,4433.924316 827.592712,4438.321777 827.604126,4442.721191
	C827.714539,4485.355469 827.649231,4527.990234 827.695312,4570.624512
	C827.702332,4577.123047 828.022278,4583.621582 828.190308,4589.851562
	C845.709961,4592.380371 965.595459,4592.658203 987.870239,4590.231934
	C989.205566,4580.145508 988.374939,4569.626465 988.514771,4559.190430
	C988.657471,4548.533691 988.546326,4537.874023 988.546326,4527.215332
	C988.546326,4516.556641 988.546326,4505.897949 988.546326,4495.239258
	C988.546326,4484.580566 988.546326,4473.922363 988.546326,4463.263672
	C988.546326,4452.662109 988.546326,4442.060547 988.546326,4430.708496
	C1002.919189,4426.492676 1016.841553,4428.940430 1030.516602,4428.600586
	C1043.676270,4428.272461 1056.896362,4428.049316 1068.778687,4428.784668
	C1070.496460,4430.627441 1071.076172,4431.042480 1071.355347,4431.606445
	C1071.639282,4432.179688 1071.729736,4432.899902 1071.730347,4433.555664
	C1071.851196,4563.447754 1071.961670,4693.340332 1072.014160,4823.232422
	C1072.014893,4825.128906 1071.289429,4827.025879 1070.924561,4828.816406
	C1057.165527,4831.924805 1019.469177,4832.583984 991.546753,4830.250000
	C986.808472,4826.062988 988.645203,4820.381836 988.629150,4815.313477
	C988.487610,4770.681152 988.546509,4726.048340 988.546143,4681.415527
	C988.546082,4674.856445 988.546204,4668.296875 988.546204,4662.017090
	C972.926147,4658.479004 877.617188,4657.422363 829.196960,4660.084473
	C828.706421,4664.258789 827.752502,4668.649414 827.741760,4673.042480
	C827.630981,4718.341797 827.672607,4763.640625 827.671753,4808.939941
	C827.671631,4815.505859 827.671753,4822.071777 827.671753,4828.291016
	C813.098450,4832.062012 781.968323,4832.777832 747.195129,4830.431641
	C742.105225,4825.660645 744.233704,4819.299316 744.221924,4813.632324
	C744.069519,4740.354492 744.120911,4667.076660 744.120911,4593.798828
	C744.120850,4545.834961 744.094482,4497.871582 744.152100,4449.907715
	C744.159912,4443.400879 744.588684,4436.894531 744.778259,4431.621582
	C746.486450,4430.031738 746.968445,4429.187988 747.462463,4429.180664
	C766.757935,4428.901367 786.054504,4428.698730 807.263916,4428.485840
z"/>
<path fill="#F6F7F7" opacity="1.000000" stroke="none"
	d="
M4884.227539,4643.732422
	C4884.251465,4618.464844 4883.840332,4595.167480 4887.665039,4571.996582
	C4891.709961,4547.495605 4898.444824,4523.986328 4910.520996,4502.175293
	C4935.566406,4456.940918 4974.489746,4431.561035 5025.062988,4424.670410
	C5050.819824,4421.161133 5076.879395,4422.022949 5102.595703,4427.634277
	C5158.910645,4439.921387 5194.065430,4473.946289 5207.980469,4529.763184
	C5210.008301,4537.899414 5213.685059,4546.064453 5210.899902,4555.800781
	C5185.155273,4557.310547 5159.330566,4556.086914 5133.120117,4556.569824
	C5131.138184,4549.964844 5129.521973,4544.284180 5127.730469,4538.659668
	C5118.722656,4510.379883 5099.794434,4494.127930 5069.958984,4491.165527
	C5066.644043,4490.835938 5063.333496,4490.378906 5060.009766,4490.224609
	C5022.840820,4488.501465 4995.850586,4505.564941 4981.428711,4539.897461
	C4973.313477,4559.216309 4970.293945,4579.726562 4969.314941,4600.335449
	C4968.020020,4627.600098 4967.552734,4654.954102 4971.907715,4682.108887
	C4974.349121,4697.335938 4978.341309,4712.061035 4985.676758,4725.679688
	C4999.694336,4751.702148 5021.382324,4766.357910 5050.999023,4768.629883
	C5069.011230,4770.012207 5086.975586,4769.798340 5104.409180,4764.145020
	C5108.822266,4762.713867 5113.268555,4761.101562 5117.297363,4758.851562
	C5121.288086,4756.623047 5124.770996,4753.485840 5128.726562,4750.562500
	C5128.726562,4727.798828 5128.726562,4705.312988 5128.726562,4681.816406
	C5104.327637,4679.025391 5080.397461,4682.113770 5056.160156,4679.948242
	C5052.992676,4669.938477 5054.963379,4659.958496 5054.614746,4650.173828
	C5054.285156,4640.914551 5054.543457,4631.634277 5054.543457,4621.000488
	C5081.283691,4618.749023 5107.009766,4620.193848 5132.668945,4619.932129
	C5158.550293,4619.667969 5184.435547,4619.873047 5210.034668,4619.873047
	C5213.588379,4635.895996 5214.636230,4731.325195 5211.981445,4781.306152
	C5201.677734,4794.369629 5187.624023,4804.154297 5172.234863,4812.272949
	C5148.970703,4824.548340 5123.919434,4831.470215 5098.048828,4834.456543
	C5065.518066,4838.211914 5032.992188,4838.655273 5001.048828,4828.720703
	C4959.463867,4815.786133 4928.529297,4790.253418 4908.392090,4751.786133
	C4891.019531,4718.602051 4884.646973,4682.793457 4884.227539,4643.732422
z"/>
<path fill="#F6F6F6" opacity="1.000000" stroke="none"
	d="
M2869.399902,4733.200684
	C2851.320312,4777.400391 2822.258789,4808.970703 2778.611084,4825.437988
	C2734.343994,4842.139160 2689.748779,4841.265137 2646.073730,4823.280762
	C2613.610596,4809.912109 2589.094238,4786.920410 2571.519531,4756.483398
	C2556.269775,4730.073730 2547.334961,4701.462402 2544.856689,4671.356445
	C2542.013672,4636.822754 2541.314453,4602.106445 2547.982910,4567.748535
	C2553.505127,4539.295898 2563.535645,4512.621582 2580.583496,4489.014160
	C2609.677734,4448.726074 2649.465088,4427.171875 2698.823975,4423.622559
	C2722.849365,4421.894531 2746.625244,4423.355469 2769.886963,4431.113770
	C2806.888672,4443.454590 2835.225098,4466.304199 2855.508545,4499.336426
	C2870.363037,4523.527344 2879.427734,4550.048340 2883.006348,4577.992676
	C2888.106201,4617.817871 2888.498047,4657.803711 2880.093750,4697.356445
	C2877.614502,4709.022949 2873.444336,4720.330078 2869.399902,4733.200684
M2627.999512,4602.976074
	C2628.053711,4622.274414 2627.381104,4641.609375 2628.345703,4660.861816
	C2629.552979,4684.961426 2634.669434,4708.292969 2646.984619,4729.514160
	C2662.862793,4756.874023 2686.758301,4769.324707 2718.218750,4768.436035
	C2748.293945,4767.585938 2769.972168,4753.652344 2784.168701,4727.504395
	C2793.525391,4710.270508 2798.119141,4691.570801 2799.910645,4672.243652
	C2802.496338,4644.350586 2802.498291,4616.381348 2799.955566,4588.480469
	C2798.254395,4569.815430 2793.682373,4551.847168 2785.130371,4534.989746
	C2766.342529,4497.957520 2730.274170,4486.323242 2694.449219,4494.291504
	C2670.649658,4499.585449 2654.505615,4514.501465 2643.733643,4535.741699
	C2633.626953,4555.669434 2629.756348,4577.190918 2627.999512,4602.976074
z"/>
<path fill="#F6F6F6" opacity="1.000000" stroke="none"
	d="
M4143.402344,4539.599609
	C4150.280762,4519.007324 4159.102539,4501.164551 4171.403320,4485.173828
	C4200.270996,4447.647949 4238.608887,4427.427246 4285.585449,4423.685547
	C4307.596680,4421.933105 4329.612793,4422.660645 4351.014160,4428.859375
	C4390.419922,4440.272461 4421.219238,4463.294922 4442.865723,4498.260742
	C4458.175293,4522.991211 4467.509277,4550.090820 4471.115234,4578.722168
	C4476.131836,4618.553711 4476.277832,4658.506348 4468.089844,4698.099121
	C4463.192871,4721.781738 4454.754883,4744.158203 4441.403320,4764.399902
	C4411.386230,4809.907715 4368.649414,4833.402344 4314.512695,4836.372070
	C4293.808105,4837.508301 4273.234863,4836.265625 4253.170410,4830.240723
	C4212.391113,4817.994629 4181.188477,4793.620117 4159.717773,4756.815918
	C4144.354004,4730.480469 4135.405273,4701.850586 4132.893555,4671.748535
	C4130.069336,4637.895508 4129.101562,4603.822266 4135.738770,4570.143555
	C4137.663574,4560.375977 4140.528320,4550.793945 4143.402344,4539.599609
M4359.539062,4745.566406
	C4372.729004,4730.726562 4380.377930,4713.176758 4384.232910,4693.931641
	C4392.038086,4654.959473 4391.229980,4615.710938 4386.325684,4576.567383
	C4384.170410,4559.365234 4378.167480,4543.109863 4369.208496,4527.914551
	C4340.642578,4479.462891 4263.303711,4479.708984 4235.419434,4529.004883
	C4227.779785,4542.511230 4222.656250,4556.746582 4219.795898,4571.908691
	C4213.558594,4604.969238 4214.422363,4638.312012 4217.259766,4671.505859
	C4219.078613,4692.778320 4224.811523,4713.414062 4236.325684,4731.942871
	C4248.621094,4751.727539 4265.927734,4764.499023 4289.140137,4767.565430
	C4314.601562,4770.929199 4338.321289,4766.662598 4359.539062,4745.566406
z"/>
<path fill="#F5F6F6" opacity="1.000000" stroke="none"
	d="
M3603.321289,4464.678711
	C3625.194336,4488.080078 3636.250488,4514.311035 3636.150635,4545.008301
	C3622.415283,4548.441895 3574.302490,4548.876953 3553.594727,4545.763672
	C3553.099609,4542.244141 3552.675781,4538.399414 3552.004883,4534.598633
	C3548.600830,4515.310547 3537.821533,4501.705078 3519.582275,4494.755859
	C3496.861084,4486.098633 3473.842773,4486.424316 3451.347900,4495.583008
	C3435.471436,4502.046875 3425.156738,4513.445801 3423.551758,4531.393555
	C3422.395264,4544.326660 3426.322510,4555.477051 3436.591309,4563.211914
	C3445.022217,4569.562500 3454.182861,4575.397461 3463.839111,4579.561035
	C3478.456787,4585.863770 3493.702881,4590.766602 3508.833740,4595.807617
	C3528.432861,4602.337402 3547.912109,4609.183594 3565.863037,4619.510254
	C3576.216797,4625.466797 3586.660889,4631.644043 3595.830566,4639.215820
	C3631.791992,4668.912109 3642.579102,4707.365234 3633.147461,4752.206055
	C3628.256104,4775.459961 3615.226562,4793.500000 3596.383057,4807.508789
	C3576.704590,4822.138184 3554.326172,4830.328125 3530.255371,4833.778320
	C3491.495850,4839.334473 3453.210938,4838.150391 3416.053223,4824.152832
	C3398.464111,4817.526855 3382.072998,4808.773438 3367.938721,4796.258789
	C3340.985352,4772.394043 3327.842041,4742.409668 3327.655029,4706.566895
	C3343.163330,4703.490723 3392.337402,4703.317871 3410.541504,4706.222168
	C3410.912842,4709.152832 3411.382324,4712.329102 3411.709473,4715.520508
	C3414.487549,4742.636719 3429.763184,4759.355469 3455.465088,4766.360352
	C3475.651611,4771.862305 3496.263672,4772.588379 3516.788086,4767.565918
	C3520.642090,4766.622559 3524.411377,4765.140137 3528.044189,4763.514160
	C3562.107910,4748.263184 3557.799805,4703.571777 3535.697754,4689.189941
	C3528.475830,4684.490234 3520.975586,4679.930664 3513.041260,4676.676270
	C3498.290527,4670.627441 3483.025879,4665.845703 3468.161377,4660.058594
	C3449.588867,4652.828125 3430.773193,4646.001953 3412.886230,4637.306152
	C3400.438232,4631.254395 3388.557617,4623.349121 3377.833740,4614.552734
	C3321.978027,4568.737305 3328.193359,4484.413574 3391.167236,4447.197754
	C3408.551270,4436.924316 3427.126709,4430.010254 3447.012695,4426.537598
	C3478.247803,4421.083008 3509.457031,4421.021973 3540.168457,4429.131348
	C3563.621582,4435.324219 3584.910400,4446.206055 3603.321289,4464.678711
z"/>
<path fill="#F5F6F6" opacity="1.000000" stroke="none"
	d="
M1220.470703,4780.458496
	C1214.511230,4798.276367 1208.980713,4814.559570 1203.452148,4830.837402
	C1174.194946,4830.837402 1146.280396,4830.837402 1118.204590,4830.837402
	C1115.534302,4824.180176 1119.721802,4819.037109 1121.658203,4813.814453
	C1158.870117,4713.437012 1196.299927,4613.140137 1233.697266,4512.832031
	C1242.292236,4489.778809 1250.899414,4466.730469 1259.579346,4443.709473
	C1261.424805,4438.814941 1263.612549,4434.049316 1265.954956,4428.481445
	C1291.478516,4428.590820 1316.669800,4428.209961 1342.241699,4428.829102
	C1391.799927,4561.085938 1441.026001,4692.437988 1490.175903,4823.818848
	C1490.821533,4825.544434 1490.500854,4827.631836 1490.687500,4830.378418
	C1462.542603,4830.378418 1434.790649,4830.378418 1405.641602,4830.378418
	C1398.450439,4818.456055 1395.833130,4803.993652 1390.930908,4790.465820
	C1385.967651,4776.770508 1381.317505,4762.961426 1376.701294,4749.693359
	C1359.231567,4747.525391 1250.532104,4747.415527 1231.191284,4749.548340
	C1227.886963,4758.979980 1224.393433,4768.951660 1220.470703,4780.458496
M1344.702515,4653.379395
	C1332.481934,4616.880371 1320.306030,4580.366699 1307.950195,4543.913574
	C1307.022827,4541.176758 1304.810547,4538.875977 1302.620117,4535.480469
	C1281.116455,4593.904785 1258.774170,4663.270996 1256.377075,4678.816406
	C1271.012329,4681.043945 1332.861938,4681.291504 1351.623901,4679.165039
	C1352.812012,4670.812500 1347.452637,4664.074219 1344.702515,4653.379395
z"/>
<path fill="#F5F5F5" opacity="1.000000" stroke="none"
	d="
M2024.910400,4607.999023
	C2025.122925,4548.038086 2025.332153,4490.077148 2025.600464,4432.116211
	C2025.602783,4431.608887 2026.397217,4431.105469 2027.941895,4429.265137
	C2029.852051,4429.085449 2033.005127,4428.534180 2036.158813,4428.530762
	C2086.138184,4428.479492 2136.119141,4428.274414 2186.096680,4428.594727
	C2210.929443,4428.753906 2235.125244,4433.001953 2257.927490,4443.410645
	C2304.629395,4464.729980 2330.098145,4500.997070 2332.867188,4552.275879
	C2333.614014,4566.101562 2332.866211,4580.432129 2330.019531,4593.944336
	C2322.364746,4630.281250 2299.924316,4655.618652 2266.967041,4671.735352
	C2244.518066,4682.713867 2220.497559,4687.913086 2195.561768,4688.344238
	C2172.244141,4688.747070 2148.916992,4688.554688 2125.594482,4688.718262
	C2120.444336,4688.753906 2115.296631,4689.183105 2108.891846,4689.491699
	C2107.800293,4705.818848 2108.480469,4721.013184 2108.364014,4736.166504
	C2108.241211,4752.159668 2108.439453,4768.154297 2108.306641,4784.146484
	C2108.181152,4799.262695 2108.948975,4814.432617 2107.701172,4829.201172
	C2088.002197,4831.918457 2043.131714,4831.817871 2027.297852,4829.266602
	C2026.732178,4828.732910 2026.114746,4828.350586 2025.800171,4827.796387
	C2025.487671,4827.246094 2025.357056,4826.523438 2025.355591,4825.875977
	C2025.194458,4753.916992 2025.052856,4681.958496 2024.910400,4607.999023
M2248.764160,4572.384277
	C2248.856934,4566.421387 2249.408447,4560.423828 2248.967285,4554.500977
	C2246.457520,4520.809082 2223.706543,4498.504883 2189.784668,4496.213379
	C2187.137695,4496.034180 2184.476562,4496.013672 2181.822021,4496.011230
	C2161.239990,4495.993164 2140.657471,4495.913086 2120.076904,4496.074219
	C2116.369385,4496.103027 2112.669922,4497.150879 2109.235107,4497.686523
	C2107.135010,4530.015137 2107.794434,4605.113770 2110.215332,4619.735352
	C2127.100586,4622.543945 2191.577393,4622.680176 2205.160889,4619.438477
	C2228.479004,4613.873535 2244.267822,4600.559570 2248.764160,4572.384277
z"/>
<path fill="#F5F6F6" opacity="1.000000" stroke="none"
	d="
M5531.650391,4763.869141
	C5538.158203,4763.959473 5542.702148,4764.048828 5548.334961,4764.160156
	C5549.575195,4775.819824 5548.913574,4786.339355 5549.025879,4796.801270
	C5549.139648,4807.412109 5549.050781,4818.025391 5549.050781,4827.732910
	C5547.312500,4829.022461 5546.790039,4829.431641 5546.245605,4829.807617
	C5545.704590,4830.181641 5545.141602,4830.833496 5544.587891,4830.833984
	C5457.966797,4830.932129 5371.345703,4830.988281 5284.724609,4830.959473
	C5283.583984,4830.959473 5282.443359,4829.859375 5281.303711,4829.271484
	C5278.799805,4813.297363 5278.706543,4447.770508 5281.202637,4430.484375
	C5296.091309,4427.968750 5523.027832,4427.476562 5546.095703,4429.910156
	C5546.611816,4430.331543 5547.270020,4430.664551 5547.604004,4431.199707
	C5547.935059,4431.728516 5548.066895,4432.461426 5548.067871,4433.104980
	C5548.090332,4453.071777 5548.086914,4473.038086 5548.086914,4494.359375
	C5543.792480,4494.904297 5539.430176,4495.929199 5535.065430,4495.939453
	C5485.087891,4496.053223 5435.110352,4496.011719 5385.132812,4496.012207
	C5378.550781,4496.012207 5371.968750,4496.012207 5365.706055,4496.012207
	C5362.130859,4510.288574 5361.344727,4563.554688 5364.166992,4590.725586
	C5381.066895,4593.129883 5398.286133,4591.525879 5415.413574,4591.806152
	C5432.734863,4592.089355 5450.063477,4591.868652 5467.389160,4591.868652
	C5484.672852,4591.868652 5501.956543,4591.868652 5519.021484,4591.868652
	C5522.045410,4606.654785 5522.386230,4633.818848 5519.840332,4655.271973
	C5509.719238,4656.725098 5499.195312,4655.818848 5488.754883,4655.979004
	C5478.761719,4656.132812 5468.764648,4656.012207 5458.769043,4656.012207
	C5448.106934,4656.012207 5437.445312,4656.012207 5426.783203,4656.012207
	C5416.787598,4656.012207 5406.792480,4656.012207 5396.796875,4656.012207
	C5386.239258,4656.012207 5375.681641,4656.012207 5366.917969,4656.012207
	C5364.628906,4657.712402 5363.938477,4658.010254 5363.603027,4658.535156
	C5363.272949,4659.051270 5363.193848,4659.796875 5363.190918,4660.442871
	C5363.056641,4692.418945 5362.921387,4724.395020 5362.876953,4756.371094
	C5362.874512,4758.239746 5363.622070,4760.109375 5363.947754,4761.637695
	C5364.862305,4762.308105 5365.397461,4763.043945 5365.937500,4763.047363
	C5420.520020,4763.356934 5475.103516,4763.611328 5531.650391,4763.869141
z"/>
<path fill="#F5F6F6" opacity="1.000000" stroke="none"
	d="
M545.890259,4767.697754
	C551.497131,4766.608398 555.375610,4765.671387 559.256592,4764.745117
	C583.093933,4759.053711 596.755920,4743.122559 603.342529,4720.399902
	C605.369507,4713.407715 606.385010,4706.121582 608.123596,4697.713379
	C635.262573,4695.794434 662.062195,4697.014160 690.164368,4697.009277
	C685.413025,4757.321777 658.271912,4800.221191 604.047852,4823.022949
	C562.247375,4840.600586 518.472290,4841.597656 474.803650,4829.338379
	C438.429779,4819.126953 411.491302,4796.216797 391.844147,4764.437500
	C375.417114,4737.866699 367.060608,4708.503906 364.128052,4677.686523
	C361.156525,4646.458984 360.970154,4615.101074 363.993835,4583.849121
	C367.046448,4552.299316 375.883118,4522.363770 392.791046,4495.376465
	C420.570038,4451.039062 461.234833,4427.484375 513.148254,4423.681641
	C533.741760,4422.173340 554.326599,4422.807129 574.769165,4427.320312
	C634.879089,4440.591309 676.203796,4482.450195 687.743408,4542.695312
	C688.986694,4549.186035 689.700867,4555.777832 690.656128,4562.292969
	C676.483765,4565.260742 628.943909,4565.693359 608.578003,4563.059082
	C606.973755,4555.477539 605.646606,4547.639648 603.633423,4539.981934
	C597.136841,4515.268066 581.870300,4499.221680 556.506348,4493.748535
	C540.698181,4490.336914 524.567200,4489.830566 508.854462,4493.158203
	C485.804291,4498.039551 469.809418,4512.388184 460.241730,4533.841309
	C453.115967,4549.818848 448.618103,4566.683105 448.215576,4584.051758
	C447.490662,4615.332031 447.508789,4646.657227 448.330383,4677.934570
	C448.768097,4694.598145 453.015045,4710.836914 459.732300,4726.271973
	C471.245789,4752.728027 491.685059,4766.377441 520.193726,4768.076172
	C528.150879,4768.549805 536.171570,4767.958008 545.890259,4767.697754
z"/>
<path fill="#F4F5F5" opacity="1.000000" stroke="none"
	d="
M3920.000244,4428.479004
	C3977.965576,4428.561523 4033.931152,4428.635742 4089.896484,4428.786133
	C4091.080811,4428.789551 4092.262939,4429.667969 4095.000488,4430.756348
	C4096.434082,4440.401855 4095.517578,4450.950195 4095.669922,4461.405762
	C4095.823975,4471.998535 4095.703613,4482.595215 4095.703613,4494.354004
	C4090.516846,4494.975098 4086.131104,4495.947266 4081.743408,4495.957031
	C4033.769043,4496.066406 3985.794189,4496.003418 3937.819580,4496.053711
	C3931.302734,4496.060547 3924.786377,4496.430176 3918.526611,4496.624023
	C3915.843506,4512.952637 3915.215332,4566.091309 3917.252686,4598.218262
	C3921.378906,4598.741699 3925.753662,4599.766602 3930.131348,4599.779785
	C3971.442383,4599.902832 4012.754150,4599.854004 4054.065674,4599.854492
	C4060.608154,4599.854492 4067.150635,4599.854492 4074.952637,4599.854492
	C4076.461914,4611.624023 4075.652100,4622.158203 4075.791260,4632.611328
	C4075.932617,4643.218750 4075.822266,4653.829590 4075.822266,4665.524902
	C4070.534424,4666.194824 4066.124756,4667.225098 4061.711914,4667.238770
	C4020.400879,4667.363281 3979.089111,4667.283691 3937.777588,4667.345703
	C3931.260986,4667.355469 3924.744873,4667.778320 3917.123535,4668.049316
	C3915.584961,4695.501465 3916.551270,4721.997559 3916.381836,4748.460449
	C3916.211426,4775.085449 3916.344238,4801.711914 3916.344238,4828.958984
	C3902.104004,4833.466309 3888.163818,4830.841309 3874.489258,4831.185547
	C3861.347656,4831.517090 3848.122070,4831.918457 3836.495605,4830.826172
	C3834.623291,4828.852539 3834.038086,4828.435059 3833.741699,4827.867188
	C3833.447021,4827.301758 3833.326416,4826.585449 3833.325684,4825.935059
	C3833.174072,4698.013184 3833.034912,4570.091309 3832.930908,4442.169434
	C3832.928223,4438.852539 3833.266113,4435.531250 3833.572510,4432.223633
	C3833.623291,4431.676270 3834.334229,4431.190430 3835.970215,4429.115234
	C3862.433838,4427.682617 3890.237549,4428.850586 3920.000244,4428.479004
z"/>
<path fill="#F4F5F5" opacity="1.000000" stroke="none"
	d="
M2395.655762,4488.019531
	C2395.744629,4468.708008 2395.806396,4451.392578 2395.982910,4434.078125
	C2395.995117,4432.895508 2396.868408,4431.721191 2397.343262,4430.543945
	C2411.751465,4427.991699 2454.488770,4427.541992 2477.503906,4429.822754
	C2477.996338,4432.645020 2479.013184,4435.758789 2479.015137,4438.873047
	C2479.096191,4566.120117 2479.090820,4693.367676 2479.055908,4820.614746
	C2479.055176,4823.209473 2478.577637,4825.804199 2478.341553,4828.205566
	C2465.350830,4832.115723 2416.866699,4832.662598 2397.497559,4829.260742
	C2396.986084,4828.095215 2396.031738,4826.929199 2396.030029,4825.762207
	C2395.858398,4713.846680 2395.759521,4601.931152 2395.655762,4488.019531
z"/>
<path fill="#F9FFFF" opacity="1.000000" stroke="none"
	d="
M5256.000977,5159.114746
	C5381.932617,5159.228027 5505.864746,5159.339844 5629.796387,5159.508789
	C5630.288086,5159.509277 5630.779297,5160.333496 5632.192383,5161.598633
	C5632.192383,5164.372070 5632.192383,5167.971680 5632.192383,5171.240234
	C5630.425781,5172.205566 5629.351074,5173.280762 5628.236816,5173.323730
	C5621.583496,5173.577637 5614.921387,5173.675781 5608.262207,5173.676270
	C5201.139648,5173.689453 4794.017578,5173.688965 4386.895020,5173.684570
	C4380.898438,5173.684570 4374.893066,5173.827637 4368.908203,5173.544922
	C4362.898926,5173.262207 4362.298828,5172.145020 4361.528809,5161.567871
	C4364.386230,5160.791504 4367.389160,5159.449707 4370.465332,5159.251465
	C4376.437988,5158.866211 4382.452148,5159.115234 4388.448730,5159.115234
	C4676.965820,5159.114258 4965.483398,5159.114746 5256.000977,5159.114746
z"/>
<path fill="#F9FFFF" opacity="1.000000" stroke="none"
	d="
M1448.000610,5159.114746
	C1507.299683,5159.231934 1564.598511,5159.345215 1621.897339,5159.522461
	C1622.381226,5159.523926 1622.862671,5160.384766 1624.233643,5161.689941
	C1624.233643,5164.451660 1624.233643,5168.059082 1624.233643,5171.277832
	C1622.345337,5172.261719 1621.257812,5173.294434 1620.133789,5173.335938
	C1613.479980,5173.580566 1606.817993,5173.675293 1600.158691,5173.675781
	C1193.036377,5173.688965 785.914124,5173.687988 378.791870,5173.684082
	C372.795380,5173.684082 366.789307,5173.827637 360.805115,5173.540527
	C354.888153,5173.257812 354.218170,5171.996582 353.617493,5161.474121
	C356.473358,5160.729004 359.486969,5159.437500 362.568848,5159.246582
	C368.543152,5158.875488 374.555878,5159.115234 380.552704,5159.115234
	C735.701965,5159.114258 1090.851196,5159.114746 1448.000610,5159.114746
z"/>
<path fill="#E7EAEA" opacity="1.000000" stroke="none"
	d="
M3439.445557,5146.520996
	C3438.125732,5183.400391 3439.793457,5218.588379 3438.225830,5254.458008
	C3432.326660,5254.768066 3427.848145,5255.003418 3422.317139,5255.294434
	C3421.567627,5251.087891 3420.356201,5247.391113 3420.336182,5243.687988
	C3420.176270,5214.384277 3420.285156,5185.079590 3420.205566,5155.774902
	C3420.189209,5149.790527 3420.354004,5143.699219 3419.344482,5137.845215
	C3416.867188,5123.481445 3409.050537,5113.950684 3394.131592,5110.426758
	C3364.434570,5103.411621 3336.904053,5123.903320 3336.401855,5154.456055
	C3335.953125,5181.754883 3336.354980,5209.067383 3336.264404,5236.373535
	C3336.244873,5242.234863 3335.723389,5248.094238 3335.398193,5254.655273
	C3329.879639,5254.655273 3325.442627,5254.655273 3320.044189,5254.655273
	C3316.558594,5237.496582 3318.837646,5220.301758 3318.449951,5203.266602
	C3318.041016,5185.293457 3318.358154,5167.304199 3318.358154,5149.321777
	C3318.358154,5132.055664 3318.358398,5114.789062 3318.358398,5096.771973
	C3324.005615,5096.427246 3328.491699,5096.153809 3334.234375,5095.803223
	C3335.230957,5102.435059 3336.151367,5108.561035 3337.054932,5114.575684
	C3341.791260,5115.577637 3343.215332,5111.869141 3345.466309,5109.792480
	C3361.429688,5095.065430 3380.170898,5091.254395 3401.079346,5095.006836
	C3412.791260,5097.108887 3422.295898,5102.446777 3429.136230,5112.291992
	C3430.914795,5114.851562 3432.726318,5117.389160 3435.263916,5120.988770
	C3438.985596,5117.108887 3441.562988,5114.238281 3444.331787,5111.566406
	C3462.910645,5093.636230 3485.101807,5089.978027 3509.146240,5096.422852
	C3525.425781,5100.787109 3534.559326,5112.930664 3538.554688,5128.774902
	C3540.164551,5135.158691 3540.756348,5141.942871 3540.803711,5148.551758
	C3541.038086,5181.184570 3540.962402,5213.820312 3540.897705,5246.454590
	C3540.892578,5248.966309 3540.126709,5251.477539 3539.607666,5254.639160
	C3534.559814,5254.639160 3530.127686,5254.639160 3524.394043,5254.639160
	C3523.958984,5250.615723 3523.214600,5246.865234 3523.201660,5243.112793
	C3523.101318,5214.474121 3523.322021,5185.833984 3523.027344,5157.198242
	C3522.946045,5149.282715 3521.988037,5141.280762 3520.501221,5133.496582
	C3518.156006,5121.219238 3510.422119,5113.936523 3498.184570,5110.787598
	C3471.612061,5103.949707 3449.505859,5116.620605 3439.445557,5146.520996
z"/>
<path fill="#E2E5E5" opacity="1.000000" stroke="none"
	d="
M2282.744629,5144.098633
	C2282.742188,5178.041016 2282.845947,5210.003418 2282.662354,5241.964355
	C2282.616455,5249.922363 2282.188965,5257.958008 2280.995605,5265.814941
	C2276.269043,5296.923340 2255.929688,5315.559082 2224.606934,5317.702637
	C2202.910889,5319.187500 2183.852783,5312.963379 2168.303955,5297.359863
	C2166.502441,5295.552246 2165.316162,5293.132324 2162.455322,5288.979004
	C2165.409912,5286.242676 2168.244141,5283.618164 2170.252441,5281.758301
	C2173.572998,5282.626465 2175.057617,5282.569336 2175.824463,5283.283203
	C2184.670410,5291.516113 2193.988770,5298.472168 2206.330078,5301.162109
	C2216.556641,5303.391113 2226.361572,5302.600098 2235.820801,5299.337891
	C2252.730469,5293.505859 2260.758789,5280.077637 2263.181641,5263.208496
	C2264.196289,5256.145020 2263.350342,5248.813965 2263.350342,5239.710449
	C2259.571045,5242.143555 2256.820312,5243.597656 2254.431152,5245.503906
	C2240.509033,5256.612305 2224.456055,5259.027344 2207.337158,5257.363281
	C2194.113037,5256.078125 2183.336182,5250.120605 2174.407959,5240.449219
	C2165.589600,5230.897949 2160.084717,5219.500977 2157.332031,5207.052246
	C2152.675537,5185.993652 2152.935059,5164.723633 2157.371826,5143.622559
	C2158.453613,5138.478027 2160.575195,5133.467773 2162.790039,5128.658691
	C2179.489502,5092.402832 2221.069336,5081.983398 2253.052002,5105.968750
	C2255.655762,5107.921387 2258.053711,5110.148438 2261.347412,5112.921875
	C2266.418945,5108.957031 2263.429932,5102.903809 2266.298096,5097.183105
	C2270.334961,5096.771973 2275.275879,5096.269043 2279.649414,5095.823730
	C2281.010010,5098.033203 2282.240723,5099.107910 2282.261230,5100.205566
	C2282.523682,5114.174805 2282.612061,5128.146973 2282.744629,5144.098633
M2233.486084,5111.405762
	C2206.305176,5105.927246 2188.711670,5113.394531 2179.654541,5136.109375
	C2169.449951,5161.701660 2169.020996,5188.017578 2178.773438,5213.966797
	C2191.356201,5247.446777 2225.049316,5247.211914 2244.650146,5235.704102
	C2256.616943,5228.678223 2264.568604,5218.763672 2264.063477,5203.460449
	C2263.472168,5185.531738 2263.458496,5167.551758 2264.087402,5149.625488
	C2264.499756,5137.864258 2259.578613,5128.968750 2251.497070,5121.632324
	C2247.182373,5117.715820 2241.534912,5115.266602 2233.486084,5111.405762
z"/>
<path fill="#E7EAEA" opacity="1.000000" stroke="none"
	d="
M2552.206543,5164.922852
	C2554.112793,5153.991699 2554.961182,5144.535156 2557.958252,5135.816895
	C2572.658203,5093.055664 2617.101318,5080.004395 2652.945312,5107.551270
	C2655.016846,5109.143555 2656.998047,5110.853027 2659.165039,5112.625488
	C2665.979004,5108.908203 2661.117920,5101.165039 2665.784668,5096.470703
	C2669.754150,5096.470703 2674.227295,5096.470703 2679.477295,5096.470703
	C2679.788818,5101.663086 2680.295410,5106.231934 2680.300781,5110.801758
	C2680.354004,5156.794434 2680.306885,5202.787109 2680.333252,5248.779785
	C2680.338867,5258.824219 2679.778320,5268.732910 2676.212891,5278.300293
	C2668.059570,5300.176758 2652.830078,5313.438477 2629.522461,5316.800781
	C2604.972412,5320.342773 2583.227783,5314.749512 2565.631104,5296.428223
	C2564.308350,5295.050781 2563.563477,5293.118652 2562.043213,5290.606445
	C2564.448486,5287.746582 2566.875488,5284.860840 2569.031006,5282.297852
	C2571.149902,5282.743164 2572.664551,5282.634277 2573.571289,5283.324707
	C2578.322754,5286.937988 2582.602783,5291.262207 2587.631104,5294.403809
	C2602.763672,5303.858887 2619.068848,5305.032227 2635.551514,5298.803223
	C2648.209717,5294.019043 2656.203857,5284.155762 2659.475342,5271.191406
	C2661.901123,5261.577637 2663.332764,5251.621582 2660.517578,5240.169922
	C2657.218506,5242.301758 2654.497803,5243.778809 2652.093994,5245.660156
	C2636.153564,5258.128418 2617.988770,5259.887207 2598.993164,5256.216309
	C2585.203369,5253.551758 2575.120850,5244.997559 2567.165527,5233.729492
	C2557.637451,5220.233398 2553.876221,5204.790039 2552.416016,5188.715332
	C2551.755371,5181.441406 2552.197510,5174.066895 2552.206543,5164.922852
M2651.548828,5123.320801
	C2647.316895,5120.145508 2643.493164,5116.062500 2638.785156,5113.945801
	C2613.379639,5102.522461 2587.409180,5110.397461 2577.434570,5136.132812
	C2567.526855,5161.696289 2567.044678,5188.425293 2576.794434,5214.166992
	C2587.313721,5241.940430 2619.847412,5251.443359 2644.519531,5234.813965
	C2655.440186,5227.453125 2662.697754,5217.750000 2662.252930,5203.376953
	C2661.718506,5186.104004 2661.792480,5168.792969 2662.252930,5151.515625
	C2662.515625,5141.656738 2659.912842,5133.199219 2651.548828,5123.320801
z"/>
<path fill="#E2E5E5" opacity="1.000000" stroke="none"
	d="
M3584.508789,5176.000977
	C3584.508789,5148.768555 3584.508789,5123.535156 3584.508789,5097.008301
	C3589.800781,5096.487793 3594.113525,5096.063965 3599.571289,5095.527344
	C3601.279053,5101.300293 3602.844482,5106.591309 3604.845215,5113.354004
	C3608.706787,5110.167480 3611.534180,5107.534668 3614.652100,5105.308105
	C3648.703613,5080.997559 3692.216797,5093.582031 3706.286865,5132.736328
	C3716.241699,5160.439453 3715.448975,5188.899902 3707.077393,5217.101074
	C3706.702148,5218.365723 3705.981201,5219.524902 3705.461426,5220.750000
	C3690.473389,5256.051270 3652.510010,5269.003418 3619.167969,5250.063965
	C3614.681885,5247.516113 3610.592041,5244.270996 3605.890381,5241.055664
	C3601.833740,5245.194824 3603.679443,5249.979492 3603.446533,5254.213867
	C3603.154785,5259.522949 3603.375977,5264.859863 3603.375488,5270.185059
	C3603.375244,5274.844727 3603.375732,5279.503906 3603.375488,5284.163574
	C3603.375488,5289.488770 3603.374756,5294.813477 3603.374512,5300.138672
	C3603.374512,5304.688477 3603.374512,5309.237793 3603.374512,5315.035156
	C3596.974365,5315.438477 3591.965576,5315.753906 3586.409180,5316.103516
	C3585.664795,5312.793457 3584.620361,5310.297363 3584.613770,5307.798828
	C3584.503174,5264.532715 3584.520020,5221.266602 3584.508789,5176.000977
M3684.529297,5221.610352
	C3695.081299,5202.046387 3696.749268,5181.000977 3693.905762,5159.540527
	C3692.784912,5151.082520 3690.560791,5142.415039 3686.990967,5134.698242
	C3670.110352,5098.207520 3626.440430,5105.256348 3610.811768,5125.970703
	C3606.277832,5131.979980 3603.137939,5138.103516 3603.240479,5145.957520
	C3603.509766,5166.595215 3603.545898,5187.242188 3603.224854,5207.878418
	C3603.100830,5215.873047 3606.496094,5221.830078 3611.453369,5227.490723
	C3627.936035,5246.311523 3667.960205,5249.665527 3684.529297,5221.610352
z"/>
<path fill="#E5E7E7" opacity="1.000000" stroke="none"
	d="
M2796.172852,5178.375000
	C2795.896729,5159.920410 2795.490723,5143.283203 2795.730225,5126.654297
	C2795.962891,5110.474609 2799.828369,5095.012695 2807.351807,5080.647461
	C2821.165527,5054.270020 2842.880371,5039.926758 2872.842041,5039.092285
	C2881.448730,5038.852539 2890.315186,5038.864258 2898.677734,5040.607422
	C2925.837158,5046.268555 2943.208496,5063.173828 2951.348633,5089.530273
	C2952.906250,5094.574219 2953.412354,5099.942871 2954.421631,5105.256348
	C2949.109619,5110.226562 2943.313477,5108.316895 2936.939941,5107.307129
	C2935.100830,5101.088379 2933.622803,5094.678711 2931.322998,5088.578613
	C2924.147217,5069.546875 2910.654541,5058.409668 2890.201416,5055.380859
	C2849.379150,5049.335938 2824.179443,5071.604980 2817.018799,5108.644531
	C2811.953125,5134.847656 2813.212646,5161.674316 2816.751953,5188.196289
	C2817.273193,5192.103027 2818.726074,5195.922852 2820.044434,5199.679199
	C2834.018066,5239.480957 2867.398438,5249.850098 2903.488037,5237.886230
	C2917.720947,5233.167969 2926.274170,5222.191406 2931.284912,5208.466797
	C2933.536377,5202.299805 2935.000977,5195.845215 2937.002686,5188.896484
	C2942.292969,5188.896484 2947.377686,5188.896484 2952.148926,5188.896484
	C2952.959961,5190.772461 2954.064941,5192.047852 2953.844971,5193.024414
	C2952.247314,5200.121094 2951.049805,5207.411133 2948.481201,5214.166992
	C2939.415283,5238.013672 2921.261475,5251.103516 2896.792480,5256.133301
	C2892.895508,5256.934570 2888.880371,5257.227539 2884.903564,5257.563965
	C2840.889648,5261.289062 2812.513428,5237.374023 2800.596924,5199.665527
	C2798.603271,5193.355469 2797.720947,5186.694336 2796.172852,5178.375000
z"/>
<path fill="#E5E7E7" opacity="1.000000" stroke="none"
	d="
M2993.985596,5045.832520
	C2993.985840,5040.157227 2993.985840,5036.259766 2993.985840,5031.652832
	C2997.450928,5030.734375 2999.830322,5029.726562 3002.266602,5029.562012
	C3004.796387,5029.391602 3007.381348,5030.037109 3010.066650,5030.339355
	C3010.859375,5032.630371 3012.022461,5034.441406 3012.034180,5036.259277
	C3012.181641,5058.903809 3012.156738,5081.549316 3012.190674,5104.194824
	C3012.196289,5107.965820 3012.006592,5111.788574 3013.399170,5117.746582
	C3018.485352,5113.252441 3021.671387,5110.272949 3025.026855,5107.499512
	C3042.412598,5093.129395 3062.278809,5090.408203 3083.324463,5096.412109
	C3099.648193,5101.069824 3108.285156,5113.474121 3111.787598,5129.453613
	C3113.347168,5136.569824 3114.259033,5143.968750 3114.319580,5151.248535
	C3114.586670,5183.216309 3114.455811,5215.188477 3114.383057,5247.158691
	C3114.378662,5249.076660 3113.626465,5250.992188 3112.944336,5254.229004
	C3108.119873,5254.555176 3103.218018,5254.886719 3097.001465,5255.306641
	C3096.637939,5248.333008 3096.091064,5242.494629 3096.070312,5236.653809
	C3095.972900,5209.345703 3096.232178,5182.034180 3095.884033,5154.730469
	C3095.783203,5146.845215 3094.791260,5138.810547 3092.953857,5131.145020
	C3090.229492,5119.779297 3082.293945,5113.376465 3070.918457,5110.539062
	C3042.554199,5103.465820 3012.781738,5125.265625 3012.289307,5154.363770
	C3011.815918,5182.330078 3012.232666,5210.310547 3012.139648,5238.285156
	C3012.122559,5243.482910 3011.542236,5248.678711 3011.175537,5254.628906
	C3005.788818,5254.628906 3001.358887,5254.628906 2996.918945,5254.628906
	C2992.295166,5249.381836 2994.080566,5243.152832 2994.068604,5237.436523
	C2993.936035,5174.161133 2993.985352,5110.885742 2993.985596,5045.832520
z"/>
<path fill="#E7EAEA" opacity="1.000000" stroke="none"
	d="
M3150.399902,5218.301270
	C3151.721680,5188.846191 3161.826416,5175.864258 3187.828857,5167.271484
	C3199.466309,5163.425293 3211.361816,5163.270996 3223.343018,5162.899414
	C3233.140625,5162.595703 3243.089600,5164.048828 3253.863770,5161.523926
	C3254.216064,5156.953125 3254.731689,5153.131348 3254.770996,5149.304199
	C3255.096436,5117.674316 3236.141846,5109.454102 3213.787354,5108.989258
	C3192.349854,5108.542969 3179.390625,5117.876465 3170.910156,5139.059570
	C3166.207764,5139.059570 3161.116699,5139.059570 3156.114014,5139.059570
	C3155.467773,5137.767090 3154.341553,5136.607422 3154.461914,5135.596191
	C3157.037354,5113.979492 3172.374023,5103.729492 3190.552002,5097.228516
	C3205.932373,5091.727539 3222.102295,5092.204590 3237.834229,5096.622070
	C3258.402832,5102.397949 3271.357422,5118.688965 3272.202881,5140.592773
	C3272.895996,5158.555176 3272.388184,5176.562988 3272.475342,5194.550293
	C3272.568848,5213.818359 3271.252197,5233.172852 3276.381104,5251.788574
	C3271.026123,5258.315430 3265.054199,5253.813965 3258.863770,5255.412598
	C3257.209229,5249.303711 3255.867432,5244.349609 3254.410156,5238.969238
	C3252.712402,5239.328613 3250.357422,5239.121582 3249.106445,5240.197754
	C3233.042236,5254.016602 3214.453857,5259.502930 3193.532715,5257.391602
	C3169.899902,5255.005859 3157.059814,5243.690918 3150.399902,5218.301270
M3254.863281,5207.062988
	C3254.574951,5197.314453 3255.792969,5187.467285 3253.961426,5177.163086
	C3243.324707,5175.106934 3233.452637,5176.247070 3223.684326,5176.177734
	C3217.755859,5176.135742 3211.709717,5176.374512 3205.915283,5177.506348
	C3196.845215,5179.277344 3187.907715,5181.704102 3180.309082,5187.557129
	C3161.541260,5202.013184 3164.817627,5230.480957 3186.802734,5239.123047
	C3193.341309,5241.692871 3201.131836,5242.892578 3208.102295,5242.208984
	C3229.124756,5240.146484 3245.957764,5230.971680 3254.863281,5207.062988
z"/>
<path fill="#E5E7E7" opacity="1.000000" stroke="none"
	d="
M3810.856934,5200.234375
	C3806.711182,5181.373047 3807.248535,5164.245117 3811.755127,5147.265625
	C3822.536621,5106.644043 3858.517334,5084.883789 3901.266357,5096.702148
	C3922.459961,5102.560547 3936.569580,5117.638184 3944.106689,5138.090332
	C3953.147217,5162.620605 3953.370605,5187.643555 3944.532959,5212.292969
	C3934.125977,5241.319336 3911.381348,5257.305664 3881.005371,5257.920410
	C3850.738525,5258.533203 3827.334473,5243.350586 3815.400879,5215.136719
	C3813.604248,5210.889160 3812.585449,5206.313477 3810.856934,5200.234375
M3850.274170,5232.985840
	C3881.782715,5250.825684 3913.467773,5241.777832 3926.147705,5210.160156
	C3935.389893,5187.113770 3935.510742,5163.275391 3925.390381,5140.210938
	C3916.533447,5120.025879 3900.556885,5108.918457 3878.484131,5109.096680
	C3857.046875,5109.269043 3842.392578,5121.212402 3833.454590,5140.136230
	C3819.896484,5168.841309 3826.086182,5207.159668 3850.274170,5232.985840
z"/>
<path fill="#E5E7E7" opacity="1.000000" stroke="none"
	d="
M1939.885742,5095.492188
	C1945.418701,5094.657227 1949.351929,5093.723633 1953.313232,5093.583008
	C1986.963867,5092.386230 2014.288086,5111.993164 2023.462769,5144.321777
	C2029.203247,5164.549805 2029.478882,5185.025391 2023.984009,5205.421387
	C2015.042114,5238.611816 1989.088989,5258.254395 1955.308228,5257.955078
	C1915.680908,5257.603516 1894.650513,5229.875000 1888.341797,5203.150879
	C1884.654053,5187.529297 1883.916138,5171.684570 1886.992310,5155.646973
	C1892.724243,5125.762695 1907.991943,5104.413574 1939.885742,5095.492188
M2008.185791,5191.919434
	C2008.199097,5181.307129 2009.373413,5170.527832 2007.873291,5160.133789
	C2006.577759,5151.157715 2003.574585,5141.842285 1999.017090,5134.023438
	C1979.822632,5101.091797 1934.724487,5099.875977 1915.090576,5132.462891
	C1898.478760,5160.034180 1898.055664,5189.953125 1914.068237,5217.912109
	C1933.790649,5252.349121 1981.224731,5250.727051 2000.278076,5215.799316
	C2003.717285,5209.494629 2005.323730,5202.190918 2008.185791,5191.919434
z"/>
<path fill="#DCE0E0" opacity="1.000000" stroke="none"
	d="
M1862.792236,5056.139648
	C1825.433105,5056.803711 1789.535645,5056.803711 1753.820190,5056.803711
	C1751.500732,5072.679199 1751.213623,5116.173828 1753.243286,5138.543457
	C1763.300781,5140.686035 1773.855835,5139.389648 1784.269775,5139.596191
	C1795.577026,5139.820801 1806.892090,5139.624512 1818.203735,5139.654297
	C1828.747314,5139.682129 1839.290649,5139.765625 1850.691406,5139.829590
	C1850.691406,5145.015137 1850.691406,5148.728027 1850.691406,5153.959961
	C1834.685791,5157.272461 1818.186157,5155.060547 1801.881104,5155.473633
	C1786.022339,5155.875977 1770.145508,5155.561035 1753.169067,5155.561035
	C1751.046143,5166.986816 1752.181030,5177.528320 1751.998901,5187.949219
	C1751.801392,5199.257324 1752.064087,5210.573242 1751.921997,5221.882812
	C1751.789673,5232.407715 1752.595093,5242.997070 1751.144653,5254.458984
	C1745.210205,5254.458984 1740.212280,5254.458984 1734.995972,5254.458984
	C1734.260132,5252.449219 1733.027466,5250.632324 1733.012329,5248.805176
	C1732.817871,5225.520996 1732.760498,5202.234863 1732.741821,5178.949707
	C1732.710938,5140.356934 1732.702148,5101.764160 1732.764282,5063.171387
	C1732.774658,5056.669922 1733.188843,5050.168945 1733.405273,5043.986328
	C1748.390137,5040.648926 1836.827026,5039.946777 1863.401733,5042.713379
	C1866.963745,5046.706543 1866.553101,5051.019531 1862.792236,5056.139648
z"/>
<path fill="#E5E7E7" opacity="1.000000" stroke="none"
	d="
M2453.214600,5109.658203
	C2439.221191,5112.559082 2429.482178,5119.150879 2422.188965,5129.207031
	C2416.240234,5137.410645 2412.612549,5146.287109 2412.792480,5156.929199
	C2413.242188,5183.532227 2412.939697,5210.147461 2412.939209,5236.757812
	C2412.939209,5242.036133 2412.939209,5247.314453 2412.939209,5254.002441
	C2407.248535,5254.481934 2402.401855,5254.889648 2398.508057,5255.217773
	C2397.019043,5253.620605 2396.490234,5253.215332 2396.185059,5252.682617
	C2395.861328,5252.117676 2395.573242,5251.432129 2395.571289,5250.798340
	C2395.423096,5202.247070 2395.293213,5153.696289 2395.218506,5105.145020
	C2395.214600,5102.556641 2395.698975,5099.967773 2396.033203,5096.603516
	C2400.828369,5096.349609 2405.314941,5096.112305 2410.992920,5095.811523
	C2411.835205,5102.624023 2412.612793,5108.911133 2413.388428,5115.185059
	C2418.731201,5117.661133 2420.367188,5112.623047 2422.932373,5110.220703
	C2438.761719,5095.399414 2457.247070,5091.121582 2478.271973,5094.969727
	C2495.889404,5098.194824 2506.781738,5108.676758 2511.631348,5125.341309
	C2513.838623,5132.925293 2515.236816,5141.017090 2515.324707,5148.897461
	C2515.696777,5182.153320 2515.447998,5215.416016 2515.363770,5248.676270
	C2515.360596,5249.930664 2514.711426,5251.183105 2514.303711,5252.649414
	C2510.069336,5257.561523 2504.724854,5254.712402 2498.776855,5255.035645
	C2498.072510,5250.795410 2496.933594,5247.055664 2496.912109,5243.310059
	C2496.755859,5216.035645 2496.860107,5188.759277 2496.796387,5161.483887
	C2496.780762,5154.836426 2496.824219,5148.153320 2496.189697,5141.549316
	C2494.241211,5121.266113 2485.293213,5112.101562 2464.855957,5109.246094
	C2461.606689,5108.791504 2458.228271,5109.258789 2453.214600,5109.658203
z"/>
<path fill="#E5E7E7" opacity="1.000000" stroke="none"
	d="
M4148.166992,5230.846680
	C4144.827637,5224.076172 4142.319336,5218.638672 4144.809570,5211.367676
	C4148.906738,5211.048828 4153.376465,5210.701172 4158.684082,5210.288086
	C4160.242676,5213.328125 4162.059570,5216.022949 4163.070312,5218.992188
	C4167.133789,5230.936523 4176.228027,5236.902344 4187.671387,5240.049805
	C4198.780273,5243.105957 4210.077148,5243.900391 4221.126953,5240.209961
	C4226.687988,5238.352539 4232.449707,5235.972168 4236.986328,5232.390625
	C4248.550293,5223.263672 4248.856445,5204.908203 4237.103516,5195.880371
	C4230.440918,5190.764160 4222.161133,5187.364258 4214.142578,5184.502441
	C4204.798828,5181.167969 4194.812500,5179.671387 4185.354980,5176.606934
	C4178.467773,5174.375977 4171.471680,5171.698242 4165.416504,5167.824219
	C4145.791992,5155.269043 4142.289551,5130.124512 4157.146973,5112.376953
	C4178.703125,5086.627441 4232.812988,5087.212402 4253.859863,5113.493164
	C4259.812988,5120.926270 4263.202148,5129.341309 4263.023926,5140.086426
	C4257.360352,5140.390625 4252.264648,5140.665039 4246.492676,5140.975098
	C4245.015137,5136.739258 4244.068359,5132.989746 4242.439941,5129.563965
	C4238.541504,5121.365234 4231.854492,5115.937500 4223.575195,5112.687500
	C4210.647949,5107.611816 4197.454590,5107.551270 4184.588867,5112.704102
	C4174.806641,5116.622070 4167.653320,5123.221680 4166.992676,5134.693848
	C4166.447754,5144.167480 4169.735352,5151.899902 4178.465820,5156.139160
	C4184.990723,5159.308105 4191.909668,5161.786621 4198.843750,5163.964844
	C4208.340332,5166.948242 4218.215820,5168.808105 4227.555664,5172.181641
	C4234.968262,5174.858887 4242.502930,5178.162109 4248.795410,5182.799805
	C4268.326660,5197.196289 4269.769531,5225.383789 4252.265137,5242.131836
	C4248.943848,5245.309082 4245.063965,5248.129395 4240.994141,5250.257324
	C4223.649414,5259.326172 4205.083008,5259.326172 4186.464355,5256.141602
	C4170.781250,5253.459473 4157.888672,5245.672363 4148.166992,5230.846680
z"/>
<path fill="#E5E7E7" opacity="1.000000" stroke="none"
	d="
M4065.603516,5094.348633
	C4091.336670,5100.777344 4101.109863,5111.243164 4104.721680,5134.936035
	C4105.322754,5138.879883 4106.092773,5142.856934 4106.109863,5146.821777
	C4106.257324,5180.741699 4106.279297,5214.662598 4106.210449,5248.583008
	C4106.206543,5250.443359 4105.064941,5252.301758 4104.257812,5254.754883
	C4099.667480,5254.754883 4095.119629,5254.754883 4089.546631,5254.754883
	C4089.035400,5250.205078 4088.117676,5245.732422 4088.096680,5241.254883
	C4087.960449,5211.985352 4088.028809,5182.714844 4088.006348,5153.444336
	C4087.999756,5144.776367 4087.705322,5136.187988 4084.106445,5128.013672
	C4080.400635,5119.595703 4074.488525,5114.103516 4065.588867,5111.312012
	C4035.983154,5102.027832 4004.685791,5124.255371 4004.257080,5155.475098
	C4003.900879,5181.414551 4004.183350,5207.362793 4004.182617,5233.307129
	C4004.182617,5239.866699 4004.182861,5246.426270 4004.182861,5252.101562
	C3998.136475,5257.174316 3993.040771,5255.078613 3988.112305,5254.542969
	C3985.345215,5239.163086 3985.135254,5114.410645 3987.800293,5096.938477
	C3989.621582,5096.560059 3991.527588,5095.889648 3993.452148,5095.831543
	C3996.043701,5095.752930 3998.649414,5096.146484 4002.440186,5096.424805
	C4003.202637,5102.905762 4003.939209,5109.167969 4004.841309,5116.835938
	C4012.421631,5113.831543 4015.881836,5106.564453 4022.209229,5103.602051
	C4028.767578,5100.531738 4035.334717,5096.986328 4042.296875,5095.410645
	C4049.282471,5093.830078 4056.759521,5094.423340 4065.603516,5094.348633
z"/>
<path fill="#E7EAEA" opacity="1.000000" stroke="none"
	d="
M2096.629395,5119.966309
	C2084.090332,5131.847656 2080.336426,5145.217285 2080.730469,5160.734863
	C2081.356201,5185.362305 2080.897461,5210.017578 2080.897217,5234.661133
	C2080.897217,5240.606445 2080.897217,5246.551758 2080.897217,5251.787109
	C2075.418701,5256.621582 2070.507080,5255.824219 2065.687256,5254.256836
	C2064.880615,5252.729980 2063.760010,5251.596680 2063.755127,5250.458008
	C2063.540771,5201.185547 2063.408936,5151.912598 2063.360107,5102.639648
	C2063.358398,5100.779297 2064.282227,5098.917969 2064.931396,5096.465820
	C2069.562988,5096.465820 2073.997803,5096.465820 2079.428467,5096.465820
	C2080.146484,5101.733887 2080.820557,5106.679688 2081.591553,5112.337402
	C2083.686523,5111.868164 2086.102051,5112.078613 2086.989258,5111.015137
	C2097.631836,5098.252930 2111.479492,5093.191895 2127.667236,5093.682129
	C2130.211182,5093.759277 2132.728516,5094.725098 2135.996338,5095.441406
	C2135.996338,5100.341309 2135.996338,5104.696289 2135.996338,5108.698242
	C2134.087402,5109.560547 2132.960205,5110.530762 2131.869385,5110.491699
	C2119.694580,5110.052734 2107.852783,5110.782227 2096.629395,5119.966309
z"/>
<path fill="#DCE0E0" opacity="1.000000" stroke="none"
	d="
M3771.703125,5231.265137
	C3771.703125,5239.714355 3771.703125,5246.265625 3771.703125,5252.437012
	C3765.725586,5256.737305 3760.606445,5255.589355 3755.527344,5254.492188
	C3755.073486,5253.945312 3754.633545,5253.465332 3754.253418,5252.941895
	C3753.867188,5252.409668 3753.233154,5251.836426 3753.230469,5251.278320
	C3753.003418,5203.427246 3752.817139,5155.575684 3752.669678,5107.724609
	C3752.659668,5104.492188 3752.967773,5101.258789 3753.188477,5096.806152
	C3759.017090,5096.392578 3764.023682,5096.036621 3769.668457,5095.635742
	C3770.460693,5098.834961 3771.587402,5101.279297 3771.594482,5103.727051
	C3771.712646,5145.606934 3771.692627,5187.486816 3771.703125,5231.265137
z"/>
<path fill="#DCE0E0" opacity="1.000000" stroke="none"
	d="
M2332.894043,5254.888672
	C2330.360596,5251.249512 2328.779785,5248.144531 2328.770264,5245.034668
	C2328.625977,5197.800781 2328.672119,5150.566895 2328.756104,5103.332520
	C2328.759277,5101.445312 2329.573975,5099.559570 2330.256836,5096.609863
	C2335.315674,5096.354004 2340.356689,5096.098633 2344.965088,5095.864746
	C2346.110107,5097.885254 2347.321777,5099.027344 2347.325928,5100.173828
	C2347.500244,5149.399902 2347.583984,5198.626953 2347.586426,5247.853516
	C2347.586670,5249.731445 2346.680664,5251.609375 2345.909912,5254.601562
	C2342.160156,5254.872559 2338.368896,5255.146973 2332.894043,5254.888672
z"/>
<path fill="#E2E5E5" opacity="1.000000" stroke="none"
	d="
M3750.490479,5051.423828
	C3754.640869,5040.102539 3757.627686,5037.969238 3765.430664,5039.312988
	C3770.458252,5040.179199 3774.754395,5045.157227 3774.845947,5050.221680
	C3774.936035,5055.202637 3770.766357,5060.405273 3765.609863,5061.227539
	C3758.479980,5062.364746 3752.540039,5061.034180 3750.490479,5051.423828
z"/>
<path fill="#E2E5E5" opacity="1.000000" stroke="none"
	d="
M2329.540283,5058.614746
	C2327.928955,5054.579102 2326.411133,5051.345215 2326.820801,5048.377930
	C2327.762695,5041.558105 2332.104248,5038.713379 2339.324219,5039.077148
	C2345.716064,5039.399414 2350.615723,5044.078613 2350.813232,5050.049316
	C2351.002686,5055.776855 2346.503906,5060.910156 2339.867188,5061.436035
	C2336.817383,5061.678223 2333.632812,5060.223633 2329.540283,5058.614746
z"/>
</svg>
